<?xml version="1.0" encoding="utf-8"?>
<!-- Uploaded to: SVG Repo, www.svgrepo.com, Generator: SVG Repo Mixer Tools -->
<svg fill="#000000" width="800px" height="800px" viewBox="0 0 32 32" version="1.1" xmlns="http://www.w3.org/2000/svg">
<title>boot-stomp</title>
<path d="M15.899 14.061c-0.75 0.349-1.51 0.802-2.254 1.347 0.701-1.017 1.484-1.813 2.294-2.399l0.849-8.495c0.372-1.724-1.782-2.49-4.558-2.142h0c-2.159 0.271-4.689 1.207-6.702 2.952l2.088 11.868 0.124 3.786 3.656 0.528 1.047-2.438 1.454 2.582c5.002 0.589 8.83-0.075 10.735-1.36 0.38-3.937-2.688-8.848-8.733-6.228zM26.231 20.424c0.339 0.203 0.522 0.42 0.522 0.646 0 1.16-4.851 2.1-10.834 2.1s-10.834-0.94-10.834-2.1c0-0.226 0.185-0.444 0.527-0.648-1.391 0.415-2.206 0.918-2.206 1.46 0 1.422 5.601 2.575 12.511 2.575s12.511-1.153 12.511-2.575c0-0.541-0.811-1.043-2.197-1.457zM5.163 20.565h-2.964l1.571 0.699c0.298-0.249 0.772-0.484 1.393-0.699zM3.407 21.881c0-0.233 0.151-0.459 0.434-0.674l-2.85 1.65 2.85-0.301c-0.283-0.215-0.435-0.441-0.435-0.674zM4.379 22.878l-1.821 2.779 4.042-2.058c-0.922-0.212-1.677-0.455-2.221-0.721zM7.428 23.772l-0.67 4.167 3.832-3.728c-1.163-0.113-2.229-0.262-3.162-0.439zM11.631 24.301l0.728 4.838 3.178-4.684c-1.369-0.008-2.682-0.062-3.906-0.154zM16.371 24.454l3.507 4.791 0.431-4.952c-1.232 0.095-2.557 0.151-3.938 0.161zM21.347 24.201l3.793 3.738-0.672-4.179c-0.921 0.178-1.972 0.327-3.121 0.441zM27.503 22.854c-0.538 0.271-1.295 0.519-2.225 0.735l4.062 2.068-1.837-2.803zM28.428 21.881c0 0.231-0.149 0.455-0.427 0.669l2.906 0.307-3.39-1.962-0.004 0.019c0.589 0.299 0.915 0.625 0.915 0.968zM26.672 20.565c0.638 0.22 1.12 0.462 1.416 0.718l1.615-0.718h-3.031z"></path>
</svg>